<svg width="25" height="25" viewBox="0 0 25 25" fill="none" xmlns="http://www.w3.org/2000/svg">
<mask id="mask0_233_13" style="mask-type:alpha" maskUnits="userSpaceOnUse" x="0" y="0" width="25" height="25">
<rect x="0.912109" y="0.03125" width="24" height="24" fill="#D9D9D9"/>
</mask>
<g mask="url(#mask0_233_13)">
<path d="M9.31211 17.0312L12.9121 13.4313L16.5121 17.0312L17.9121 15.6313L14.3121 12.0312L17.9121 8.43125L16.5121 7.03125L12.9121 10.6313L9.31211 7.03125L7.91211 8.43125L11.5121 12.0312L7.91211 15.6313L9.31211 17.0312ZM12.9121 22.0312C11.5288 22.0312 10.2288 21.7687 9.01211 21.2437C7.79544 20.7187 6.73711 20.0063 5.83711 19.1063C4.93711 18.2063 4.22461 17.1479 3.69961 15.9313C3.17461 14.7146 2.91211 13.4146 2.91211 12.0312C2.91211 10.6479 3.17461 9.34792 3.69961 8.13125C4.22461 6.91458 4.93711 5.85625 5.83711 4.95625C6.73711 4.05625 7.79544 3.34375 9.01211 2.81875C10.2288 2.29375 11.5288 2.03125 12.9121 2.03125C14.2954 2.03125 15.5954 2.29375 16.8121 2.81875C18.0288 3.34375 19.0871 4.05625 19.9871 4.95625C20.8871 5.85625 21.5996 6.91458 22.1246 8.13125C22.6496 9.34792 22.9121 10.6479 22.9121 12.0312C22.9121 13.4146 22.6496 14.7146 22.1246 15.9313C21.5996 17.1479 20.8871 18.2063 19.9871 19.1063C19.0871 20.0063 18.0288 20.7187 16.8121 21.2437C15.5954 21.7687 14.2954 22.0312 12.9121 22.0312Z" fill="white"/>
</g>
</svg>
