<svg width="24" height="24" viewBox="0 0 24 24" fill="none" xmlns="http://www.w3.org/2000/svg">
<mask id="mask0_240_105" style="mask-type:alpha" maskUnits="userSpaceOnUse" x="0" y="0" width="24" height="24">
<rect width="24" height="24" fill="#D9D9D9"/>
</mask>
<g mask="url(#mask0_240_105)">
<path d="M15 20C12.7667 20 10.875 19.225 9.325 17.675C7.775 16.125 7 14.2333 7 12C7 9.76667 7.775 7.875 9.325 6.325C10.875 4.775 12.7667 4 15 4C17.2333 4 19.125 4.775 20.675 6.325C22.225 7.875 23 9.76667 23 12C23 14.2333 22.225 16.125 20.675 17.675C19.125 19.225 17.2333 20 15 20ZM7 19.75C5.23333 19.2833 3.79167 18.3333 2.675 16.9C1.55833 15.4667 1 13.8333 1 12C1 10.1667 1.55833 8.53333 2.675 7.1C3.79167 5.66667 5.23333 4.71667 7 4.25V6.35C5.8 6.76667 4.83333 7.49167 4.1 8.525C3.36667 9.55833 3 10.7167 3 12C3 13.2833 3.36667 14.4417 4.1 15.475C4.83333 16.5083 5.8 17.2333 7 17.65V19.75Z" fill="white"/>
</g>
</svg>
