<svg width="25" height="25" viewBox="0 0 25 25" fill="none" xmlns="http://www.w3.org/2000/svg">
<mask id="mask0_231_7" style="mask-type:alpha" maskUnits="userSpaceOnUse" x="0" y="0" width="25" height="25">
<rect x="0.621094" y="0.712891" width="24" height="24" fill="#D9D9D9"/>
</mask>
<g mask="url(#mask0_231_7)">
<path d="M9.87129 22.7129L9.47129 19.5129C9.25462 19.4296 9.05046 19.3296 8.85879 19.2129C8.66712 19.0962 8.47962 18.9712 8.29629 18.8379L5.32129 20.0879L2.57129 15.3379L5.14629 13.3879C5.12962 13.2712 5.12129 13.1587 5.12129 13.0504V12.3754C5.12129 12.2671 5.12962 12.1546 5.14629 12.0379L2.57129 10.0879L5.32129 5.33789L8.29629 6.58789C8.47962 6.45456 8.67129 6.32956 8.87129 6.21289C9.07129 6.09622 9.27129 5.99622 9.47129 5.91289L9.87129 2.71289H15.3713L15.7713 5.91289C15.988 5.99622 16.1921 6.09622 16.3838 6.21289C16.5755 6.32956 16.763 6.45456 16.9463 6.58789L19.9213 5.33789L22.6713 10.0879L20.0963 12.0379C20.113 12.1546 20.1213 12.2671 20.1213 12.3754V13.0504C20.1213 13.1587 20.1046 13.2712 20.0713 13.3879L22.6463 15.3379L19.8963 20.0879L16.9463 18.8379C16.763 18.9712 16.5713 19.0962 16.3713 19.2129C16.1713 19.3296 15.9713 19.4296 15.7713 19.5129L15.3713 22.7129H9.87129ZM12.6713 16.2129C13.638 16.2129 14.463 15.8712 15.1463 15.1879C15.8296 14.5046 16.1713 13.6796 16.1713 12.7129C16.1713 11.7462 15.8296 10.9212 15.1463 10.2379C14.463 9.55456 13.638 9.21289 12.6713 9.21289C11.688 9.21289 10.8588 9.55456 10.1838 10.2379C9.50879 10.9212 9.17129 11.7462 9.17129 12.7129C9.17129 13.6796 9.50879 14.5046 10.1838 15.1879C10.8588 15.8712 11.688 16.2129 12.6713 16.2129Z" fill="white"/>
</g>
</svg>
