<svg width="16" height="16" viewBox="0 0 16 16" fill="none" xmlns="http://www.w3.org/2000/svg">
<path d="M11.492 11.492H4.50803V4.50803H8.00003V3.50003H4.50803C4.37536 3.49897 4.24381 3.52431 4.12103 3.57459C3.99825 3.62487 3.88671 3.69908 3.79289 3.79289C3.69908 3.88671 3.62487 3.99825 3.57459 4.12103C3.52431 4.24381 3.49897 4.37536 3.50003 4.50803V11.492C3.49897 11.6247 3.52431 11.7563 3.57459 11.879C3.62487 12.0018 3.69908 12.1134 3.79289 12.2072C3.88671 12.301 3.99825 12.3752 4.12103 12.4255C4.24381 12.4758 4.37536 12.5011 4.50803 12.5H11.492C11.6247 12.5011 11.7563 12.4758 11.879 12.4255C12.0018 12.3752 12.1134 12.301 12.2072 12.2072C12.301 12.1134 12.3752 12.0018 12.4255 11.879C12.4758 11.7563 12.5011 11.6247 12.5 11.492V8.00003H11.492V11.492ZM9.00803 3.50003V4.50803H10.789L5.89103 9.40603L6.59403 10.109L11.492 5.21103V6.99203H12.5V3.50003H9.00803Z" fill="white"/>
</svg>
