<svg width="25" height="25" viewBox="0 0 25 25" fill="none" xmlns="http://www.w3.org/2000/svg">
<mask id="mask0_238_85" style="mask-type:alpha" maskUnits="userSpaceOnUse" x="0" y="0" width="25" height="25">
<rect x="0.489746" y="0.171875" width="24" height="24" fill="#D9D9D9"/>
</mask>
<g mask="url(#mask0_238_85)">
<path d="M6.48975 22.1719C5.93975 22.1719 5.46891 21.976 5.07725 21.5844C4.68558 21.1927 4.48975 20.7219 4.48975 20.1719V8.17188C4.48975 7.62187 4.68558 7.15104 5.07725 6.75938C5.46891 6.36771 5.93975 6.17188 6.48975 6.17188H8.48975C8.48975 5.07187 8.88141 4.13021 9.66475 3.34688C10.4481 2.56354 11.3897 2.17188 12.4897 2.17188C13.5897 2.17188 14.5314 2.56354 15.3147 3.34688C16.0981 4.13021 16.4897 5.07187 16.4897 6.17188H18.4897C19.0397 6.17188 19.5106 6.36771 19.9022 6.75938C20.2939 7.15104 20.4897 7.62187 20.4897 8.17188V20.1719C20.4897 20.7219 20.2939 21.1927 19.9022 21.5844C19.5106 21.976 19.0397 22.1719 18.4897 22.1719H6.48975ZM6.48975 20.1719H18.4897V8.17188H16.4897V10.1719C16.4897 10.4552 16.3939 10.6927 16.2022 10.8844C16.0106 11.076 15.7731 11.1719 15.4897 11.1719C15.2064 11.1719 14.9689 11.076 14.7772 10.8844C14.5856 10.6927 14.4897 10.4552 14.4897 10.1719V8.17188H10.4897V10.1719C10.4897 10.4552 10.3939 10.6927 10.2022 10.8844C10.0106 11.076 9.77308 11.1719 9.48975 11.1719C9.20641 11.1719 8.96891 11.076 8.77725 10.8844C8.58558 10.6927 8.48975 10.4552 8.48975 10.1719V8.17188H6.48975V20.1719ZM10.4897 6.17188H14.4897C14.4897 5.62187 14.2939 5.15104 13.9022 4.75938C13.5106 4.36771 13.0397 4.17188 12.4897 4.17188C11.9397 4.17188 11.4689 4.36771 11.0772 4.75938C10.6856 5.15104 10.4897 5.62187 10.4897 6.17188Z" fill="white"/>
</g>
</svg>
